#!OML:ASF F:\VICON\USERDATA\INSTALL\rory3\rory3.ASF
:FULLY-SPECIFIED
:DEGREES
251
root -0.934791 17.7795 5.04206 -188.152 73.0831 175.543
lowerback 20.8101 3.06461 -1.72408
upperback 2.46879 4.33777 4.34639
thorax -9.42376 2.3378 4.50031
lowerneck -10.6309 -6.21776 -3.89316
upperneck 19.9014 -7.1343 -1.60034
head 7.99538 -3.6846 -0.582086
rclavicle 3.12092e-014 4.77083e-015
rhumerus -17.2296 -35.272 -72.0096
rradius 20.18
rwrist 32.0716
rhand -18.391 1.28287
rfingers 7.12502
rthumb 7.89298 -28.5498
lclavicle 3.12092e-014 4.77083e-015
lhumerus -42.2308 9.38456 73.1032
lradius 49.8506
lwrist 14.8943
lhand -13.8216 49.0647
lfingers 7.12502
lthumb 12.3011 78.6829
rfemur -14.5059 -1.6444 21.2481
rtibia 45.5155
rfoot -26.6007 -14.4295
rtoes 3.40953
lfemur -14.9139 -8.61259 -20.1664
ltibia 36.8202
lfoot -12.5136 -9.93294
ltoes 12.9785
252
root -0.927263 17.8052 5.02359 -188.123 73.562 175.605
lowerback 21.0126 2.99482 -2.42323
upperback 2.30873 4.12504 4.66819
thorax -9.76627 2.28019 5.32096
lowerneck -10.5792 -6.06565 -4.26046
upperneck 20.1777 -6.82414 -1.6736
head 8.08877 -3.5676 -0.518979
rclavicle -4.35338e-014 -3.18055e-014
rhumerus -18.3104 -20.5748 -73.7899
rradius 23.4123
rwrist 17.0341
rhand -19.3945 -0.973329
rfingers 7.12502
rthumb 6.92432 -30.8401
lclavicle -4.35338e-014 -3.18055e-014
lhumerus -42.9451 10.4713 72.4813
lradius 50.6008
lwrist 15.6222
lhand -14.789 48.7547
lfingers 7.12502
lthumb 11.3683 78.4266
rfemur -14.4271 -2.97235 21.243
rtibia 45.3773
rfoot -26.8231 -15.6265
rtoes 5.4168
lfemur -14.5993 -8.76247 -20.1827
ltibia 36.6064
lfoot -12.6216 -9.35143
ltoes 13.4611
253
root -0.919087 17.8103 5.00311 -188.674 74.1027 175.203
lowerback 21.1273 3.0567 -2.79069
upperback 2.33061 4.12703 4.7255
thorax -9.83488 2.29888 5.59538
lowerneck -10.5338 -6.08318 -4.68767
upperneck 20.2617 -6.82505 -1.3903
head 8.13766 -3.57223 -0.358348
rclavicle -4.77083e-014 -5.24792e-014
rhumerus -19.1593 -26.4638 -72.6074
rradius 23.7114
rwrist 21.9715
rhand -18.9906 1.0922
rfingers 7.12502
rthumb 7.31422 -28.7614
lclavicle -4.77083e-014 -5.24792e-014
lhumerus -42.9527 10.8201 71.9423
lradius 51.0514
lwrist 16.5625
lhand -15.6664 48.6309
lfingers 7.12502
lthumb 10.522 78.3475
rfemur -14.2349 -4.2317 21.112
rtibia 45.2994
rfoot -26.9454 -17.0439
rtoes 6.84478
lfemur -14.0974 -8.62546 -20.3694
ltibia 36.314
lfoot -12.8211 -8.94785
ltoes 12.6418
254
root -0.910018 17.819 4.98617 -188.93 74.55 175.047
lowerback 21.1556 3.08952 -3.06767
upperback 2.36503 4.10869 4.75781
thorax -9.83116 2.30211 5.79798
lowerneck -10.4563 -6.17976 -4.97365
upperneck 20.2248 -6.98241 -1.05989
head 8.13852 -3.63776 -0.218028
rclavicle -2.48481e-014 3.49861e-014
rhumerus -20.2035 -28.9419 -71.972
rradius 24.8766
rwrist 23.7064
rhand -18.8287 2.31143
rfingers 7.12502
rthumb 7.47049 -27.5367
lclavicle -2.48481e-014 3.49861e-014
lhumerus -42.9173 11.0165 71.3071
lradius 51.5494
lwrist 17.4392
lhand -16.3905 48.8328
lfingers 7.12502
lthumb 9.8234 78.5837
rfemur -14.1242 -5.31132 21.0519
rtibia 45.275
rfoot -26.724 -18.7212
rtoes 7.02774
lfemur -13.6538 -8.20281 -20.4176
ltibia 35.9394
lfoot -12.8291 -9.06288
ltoes 12.3931
255
root -0.898093 17.844 4.9668 -188.755 74.9598 175.124
lowerback 20.9498 3.07039 -3.17489
upperback 2.3206 4.05538 4.75156
thorax -9.76843 2.27869 5.87482
lowerneck -10.2866 -6.31586 -5.17998
upperneck 20.1769 -7.2065 -0.762997
head 8.11668 -3.73177 -0.105185
rclavicle -4.75095e-014 -5.88403e-014
rhumerus -21.3577 -28.5197 -71.857
rradius 26.7249
rwrist 22.689
rhand -19.617 2.32717
rfingers 7.12502
rthumb 6.7096 -27.5465
lclavicle -4.75095e-014 -5.88403e-014
lhumerus -43.0323 11.268 70.6159
lradius 52.0009
lwrist 17.8574
lhand -15.9725 49.255
lfingers 7.12502
lthumb 10.2267 78.9864
rfemur -14.0754 -5.61747 20.8339
rtibia 45.2943
rfoot -28.4776 -17.5174
rtoes 16.2818
lfemur -13.4412 -8.14655 -20.3693
ltibia 35.6073
lfoot -12.814 -9.02165
ltoes 13.3629
256
root -0.889195 17.8577 4.94877 -188.757 75.3377 175.069
lowerback 20.8936 3.05919 -3.30461
upperback 2.21193 4.01366 4.80076
thorax -9.8668 2.26778 6.02017
lowerneck -9.93183 -6.3306 -5.48451
upperneck 20.0977 -7.21167 -0.642356
head 8.0449 -3.74412 -0.00436405
rclavicle 5.98342e-014 -7.95139e-015
rhumerus -22.5911 -27.1617 -71.7025
rradius 28.6745
rwrist 21.0032
rhand -20.6236 2.39797
rfingers 7.12502
rthumb 5.7378 -27.5043
lclavicle 5.98342e-014 -7.95139e-015
lhumerus -43.3283 11.5547 70.1305
lradius 52.2694
lwrist 18.08
lhand -15.7423 49.4299
lfingers 7.12502
lthumb 10.4487 79.1502
rfemur -14.0989 -6.35835 20.6892
rtibia 45.3285
rfoot -29.371 -17.3108
rtoes 20.3707
lfemur -13.2062 -8.06841 -20.4417
ltibia 35.3191
lfoot -13.0526 -8.57251
ltoes 10.5357
257
root -0.88168 17.8624 4.92896 -188.568 75.655 175.271
lowerback 20.8224 2.93337 -3.17569
upperback 2.18523 3.86541 4.71663
thorax -9.82222 2.18727 5.89718
lowerneck -9.94384 -6.22449 -5.38396
upperneck 20.2244 -7.06552 -0.708245
head 8.07889 -3.6731 -0.0290025
rclavicle 5.96354e-015 -5.88403e-014
rhumerus -23.7729 -26.9479 -71.6784
rradius 30.633
rwrist 20.7707
rhand -21.2479 3.10364
rfingers 7.12502
rthumb 5.13499 -26.8141
lclavicle 5.96354e-015 -5.88403e-014
lhumerus -43.4529 11.5256 69.5508
lradius 52.5146
lwrist 18.9608
lhand -16.5586 49.5606
lfingers 7.12502
lthumb 9.66127 79.319
rfemur -14.0835 -7.39953 20.6797
rtibia 45.307
rfoot -29.9285 -17.4808
rtoes 23.7989
lfemur -12.9499 -8.2875 -20.4039
ltibia 35.0312
lfoot -13.0599 -8.30903
ltoes 11.6333
258
root -0.875292 17.8617 4.90376 -188.054 75.6687 175.816
lowerback 20.6943 2.6499 -2.70356
upperback 2.21874 3.57024 4.47378
thorax -9.6287 2.01438 5.44121
lowerneck -9.96408 -6.14642 -4.9524
upperneck 20.201 -7.03893 -0.731005
head 8.05343 -3.63275 -0.102644
rclavicle 1.2921e-014 -3.18055e-014
rhumerus -24.9513 -27.0218 -71.885
rradius 32.8027
rwrist 21.0133
rhand -22.0544 3.83057
rfingers 7.12502
rthumb 4.35625 -26.1046
lclavicle 1.2921e-014 -3.18055e-014
lhumerus -43.3816 11.4197 68.7678
lradius 52.7339
lwrist 19.7016
lhand -17.2392 49.4833
lfingers 7.12502
lthumb 9.00457 79.2711
rfemur -14.026 -8.78267 20.696
rtibia 45.2562
rfoot -29.8247 -18.1452
rtoes 23.9417
lfemur -12.7032 -8.60568 -20.401
ltibia 34.7568
lfoot -13.2407 -7.75114
ltoes 10.0211
259
root -0.860106 17.8631 4.92898 -189.982 77.7572 174.122
lowerback 20.7337 3.38517 -3.85186
upperback 2.42722 4.27991 4.55096
thorax -9.59315 2.39555 5.98145
lowerneck -9.95404 -6.14009 -5.01082
upperneck 20.1281 -7.03164 -0.703227
head 8.03068 -3.63303 -0.0821872
rclavicle -2.22639e-014 -1.90833e-014
rhumerus -26.0964 -25.6795 -72.1073
rradius 35.3454
rwrist 20.259
rhand -23.2857 4.10601
rfingers 7.12502
rthumb 3.16721 -25.8502
lclavicle -2.22639e-014 -1.90833e-014
lhumerus -43.4608 11.6392 68.2268
lradius 52.8206
lwrist 20.2936
lhand -17.9499 49.3008
lfingers 7.12502
lthumb 8.31868 79.117
rfemur -13.8313 -7.94893 20.649
rtibia 45.1579
rfoot -29.0869 -19.0363
rtoes 22.3798
lfemur -11.8742 -7.22363 -20.5028
ltibia 34.4995
lfoot -13.8043 -7.12727
ltoes 8.87858
260
root -0.845527 17.863 4.96118 -192.921 80.1283 171.474
lowerback 20.8874 4.22794 -5.25812
upperback 2.5955 5.08318 4.73971
thorax -9.74095 2.83917 6.7612
lowerneck -10.0679 -6.07539 -5.24422
upperneck 20.264 -6.90571 -0.634392
head 8.10674 -3.58441 -0.0154448
rclavicle -1.49089e-014 -6.04305e-014
rhumerus -27.399 -23.8427 -72.3014
rradius 38.229
rwrist 19.151
rhand -24.7122 3.94488
rfingers 7.12502
rthumb 1.78948 -26.0274
lclavicle -1.49089e-014 -6.04305e-014
lhumerus -43.8524 11.9492 67.7751
lradius 52.9774
lwrist 20.9645
lhand -18.5168 49.3147
lfingers 7.12502
lthumb 7.77158 79.1518
rfemur -13.5895 -6.6911 20.6322
rtibia 45.0436
rfoot -28.4146 -19.5458
rtoes 21.0101
lfemur -10.9634 -5.60453 -20.5512
ltibia 34.2874
lfoot -14.3314 -6.4123
ltoes 8.4014
261
root -0.838865 17.864 4.95128 -193.02 80.9106 171.522
lowerback 20.961 4.24657 -5.35243
upperback 2.6153 5.09178 4.8103
thorax -9.77542 2.84996 6.89112
lowerneck -10.0549 -5.97915 -5.35721
upperneck 20.3148 -6.74118 -0.681734
head 8.12087 -3.5196 0.00388174
rclavicle 1.23246e-014 1.27222e-014
rhumerus -28.8489 -22.4964 -72.2815
rradius 41.2979
rwrist 18.8974
rhand -25.046 4.16232
rfingers 7.12502
rthumb 1.46717 -25.8124
lclavicle 1.23246e-014 1.27222e-014
lhumerus -44.2827 12.0658 67.2916
lradius 53.0559
lwrist 21.4122
lhand -18.5598 49.4697
lfingers 7.12502
lthumb 7.73001 79.3084
rfemur -13.409 -7.04256 20.6707
rtibia 44.9398
rfoot -27.9259 -19.6527
rtoes 19.4439
lfemur -10.5192 -5.61833 -20.4735
ltibia 34.1012
lfoot -14.6536 -5.59184
ltoes 9.33203
262
root -0.840415 17.8681 4.91002 -192.145 80.1489 172.285
lowerback 20.8847 3.66954 -4.64012
upperback 2.54948 4.47288 4.60414
thorax -9.62981 2.51747 6.43812
lowerneck -10.1052 -5.94009 -5.13159
upperneck 20.284 -6.69922 -0.833538
head 8.10362 -3.49886 -0.0788254
rclavicle 3.83654e-014 -1.11319e-014
rhumerus -30.1896 -21.9937 -72.281
rradius 44.2682
rwrist 19.2837
rhand -25.3622 4.63051
rfingers 7.12502
rthumb 1.16179 -25.3461
lclavicle 3.83654e-014 -1.11319e-014
lhumerus -44.3699 12.0606 66.7514
lradius 53.02
lwrist 21.538
lhand -17.9778 49.8595
lfingers 7.12502
lthumb 8.29174 79.6768
rfemur -13.3948 -8.56603 20.3514
rtibia 44.8291
rfoot -27.5886 -19.7865
rtoes 18.204
lfemur -10.6945 -6.81536 -20.6729
ltibia 34.018
lfoot -14.6021 -5.14422
ltoes 11.3895
263
root -0.843186 17.8728 4.86153 -191.034 79.0277 173.116
lowerback 20.7017 2.85899 -3.8841
upperback 2.39021 3.55264 4.36767
thorax -9.50174 2.04056 6.01525
lowerneck -10.1031 -5.78223 -4.77649
upperneck 20.195 -6.51393 -1.02983
head 8.04766 -3.40532 -0.179258
rclavicle -5.54609e-014 -6.36111e-015
rhumerus -31.4992 -21.2746 -72.503
rradius 47.2291
rwrist 19.422
rhand -25.6194 5.47667
rfingers 7.12502
rthumb 0.913368 -24.5011
lclavicle -5.54609e-014 -6.36111e-015
lhumerus -44.7806 12.2536 66.1016
lradius 53.2307
lwrist 21.885
lhand -17.5908 50.4804
lfingers 7.12502
lthumb 8.66526 80.2826
rfemur -13.5514 -10.0613 19.9926
rtibia 44.7084
rfoot -27.4479 -19.7304
rtoes 18.4111
lfemur -11.1538 -8.13576 -20.8757
ltibia 33.9931
lfoot -14.3492 -5.04895
ltoes 13.1267
264
root -0.841463 17.883 4.83309 -189.321 78.6896 174.571
lowerback 20.7414 2.22637 -3.49782
upperback 2.05922 2.79634 4.32659
thorax -9.76548 1.67241 5.97128
lowerneck -10.0193 -5.40288 -4.38543
upperneck 20.3116 -5.99166 -1.36582
head 8.03582 -3.15947 -0.297605
rclavicle -2.78299e-014 -1.11319e-014
rhumerus -32.9999 -19.6109 -72.8402
rradius 50.3131
rwrist 19.4129
rhand -25.9101 5.97271
rfingers 7.12502
rthumb 0.632536 -24.0061
lclavicle -2.78299e-014 -1.11319e-014
lhumerus -45.7558 12.6979 65.1775
lradius 53.3885
lwrist 22.3519
lhand -17.3979 50.8632
lfingers 7.12502
lthumb 8.85143 80.6576
rfemur -13.7396 -10.8021 20.0289
rtibia 44.5632
rfoot -27.5224 -19.1302
rtoes 19.9005
lfemur -11.4557 -8.88865 -20.7034
ltibia 33.9282
lfoot -14.3459 -4.8406
ltoes 13.6878
265
root -0.836283 17.8907 4.82905 -188.694 79.2255 174.971
lowerback 20.3678 2.08032 -3.34661
upperback 2.09458 2.62663 4.21519
thorax -9.48558 1.57296 5.81052
lowerneck -10.1775 -5.16955 -4.15228
upperneck 20.2058 -5.69705 -1.46577
head 8.01272 -3.01582 -0.341211
rclavicle 2.94201e-014 3.33958e-014
rhumerus -34.1158 -18.59 -73.287
rradius 53.4039
rwrist 19.501
rhand -26.5465 6.00088
rfingers 7.12502
rthumb 0.0178713 -23.9789
lclavicle 2.94201e-014 3.33958e-014
lhumerus -45.8523 12.6967 64.6053
lradius 53.1258
lwrist 22.803
lhand -17.2667 50.8541
lfingers 7.12502
lthumb 8.97802 80.6431
rfemur -13.9812 -10.5235 20.1193
rtibia 44.4931
rfoot -27.3749 -18.7247
rtoes 20.6096
lfemur -11.4685 -8.95241 -20.5471
ltibia 33.6555
lfoot -14.4291 -4.5282
ltoes 14.7793
